# xmcd CD database file
#
# Track frame offsets:
#	150
#	2527
#	44294
#	78577
#	109657
#	146690
#	170243
#	223389
#	263222
#
# Disc length: 4636 seconds
#
# Revision: 0
# Processed by: cddbd v1.5.2PL0 Copyright (c) Steve Scherf et al.
# Submitted via: CDex 1.51
#
DISCID=81121a09
DTITLE=Dolores Ashcroft Nowicki - Your Unseen Power - 04 - So you want to build a temple
DYEAR=2006
DGENRE=New Age
TTITLE0=Introduction
TTITLE1=Preparing your temple room
TTITLE2=Building your altar
TTITLE3=Your magical tools
TTITLE4=The wand and the sword
TTITLE5=The chalice and the pentacle
TTITLE6=Consecrating magical implements
TTITLE7=Your magical name and ring
TTITLE8=Consecrating the temple
EXTD=YEAR: 2006
EXTT0=
EXTT1=
EXTT2=
EXTT3=
EXTT4=
EXTT5=
EXTT6=
EXTT7=
EXTT8=
PLAYORDER=
